<mxfile host="app.diagrams.net" modified="2020-06-30T18:14:05.397Z" agent="5.0 (Windows NT 10.0; Win64; x64) AppleWebKit/537.36 (KHTML, like Gecko) Chrome/83.0.4103.106 Safari/537.36 Edg/83.0.478.54" etag="O41IqwosC38kfqDHp_Ll" version="13.3.1" type="github">
  <diagram name="Page-1" id="e7e014a7-5840-1c2e-5031-d8a46d1fe8dd">
    <mxGraphModel dx="3124" dy="1941" grid="1" gridSize="10" guides="1" tooltips="1" connect="1" arrows="1" fold="1" page="1" pageScale="1" pageWidth="1169" pageHeight="826" background="#ffffff" math="0" shadow="0">
      <root>
        <mxCell id="0" />
        <mxCell id="1" parent="0" />
        <mxCell id="2" value="MisCertificaciones" style="swimlane;whiteSpace=wrap" parent="1" vertex="1">
          <mxGeometry x="-220" y="-110" width="330" height="342" as="geometry" />
        </mxCell>
        <mxCell id="z6HRuHsra1VzPBBbZyOo-50" value="Credito" style="shape=umlFrame;whiteSpace=wrap;html=1;" parent="2" vertex="1">
          <mxGeometry x="25.5" y="48" width="264.5" height="202" as="geometry" />
        </mxCell>
        <mxCell id="z6HRuHsra1VzPBBbZyOo-51" value="Certificacion.aspx" style="shape=umlFrame;whiteSpace=wrap;html=1;width=110;height=36;" parent="2" vertex="1">
          <mxGeometry x="40" y="92" width="170" height="124" as="geometry" />
        </mxCell>
        <mxCell id="z6HRuHsra1VzPBBbZyOo-52" value="Guardar_Click" style="html=1;fillColor=#fff2cc;strokeColor=#d6b656;" parent="2" vertex="1">
          <mxGeometry x="50" y="142" width="110" height="50" as="geometry" />
        </mxCell>
        <mxCell id="3" value="04.Cross-Cutting" style="swimlane;whiteSpace=wrap;startSize=23;" parent="1" vertex="1">
          <mxGeometry x="440" y="128" width="410" height="1122" as="geometry" />
        </mxCell>
        <mxCell id="z6HRuHsra1VzPBBbZyOo-41" value="TransarUtil" style="shape=umlFrame;whiteSpace=wrap;html=1;width=80;height=30;" parent="3" vertex="1">
          <mxGeometry x="35.5" y="102" width="334.5" height="648" as="geometry" />
        </mxCell>
        <mxCell id="z6HRuHsra1VzPBBbZyOo-42" value="CUtil.vb" style="shape=umlFrame;whiteSpace=wrap;html=1;width=65;height=15;" parent="3" vertex="1">
          <mxGeometry x="44.25" y="147" width="295.75" height="533" as="geometry" />
        </mxCell>
        <mxCell id="z6HRuHsra1VzPBBbZyOo-43" value="DescargarArchivosFileServer" style="html=1;fillColor=#fff2cc;strokeColor=#d6b656;" parent="3" vertex="1">
          <mxGeometry x="68.62" y="186" width="247" height="104" as="geometry" />
        </mxCell>
        <mxCell id="z6HRuHsra1VzPBBbZyOo-45" value="FTPLib" style="shape=umlFrame;whiteSpace=wrap;html=1;width=80;height=30;" parent="3" vertex="1">
          <mxGeometry x="44.25" y="782" width="334.5" height="248" as="geometry" />
        </mxCell>
        <mxCell id="z6HRuHsra1VzPBBbZyOo-46" value="Main.cs" style="shape=umlFrame;whiteSpace=wrap;html=1;width=65;height=15;" parent="3" vertex="1">
          <mxGeometry x="53" y="834.5" width="295.75" height="145.5" as="geometry" />
        </mxCell>
        <mxCell id="z6HRuHsra1VzPBBbZyOo-47" value="FtpConnect" style="html=1;" parent="3" vertex="1">
          <mxGeometry x="135.18" y="866" width="131.37" height="64" as="geometry" />
        </mxCell>
        <mxCell id="QoqTUfEi-BefyOeQxd0C-5" value="EliminarArchivosFileServer" style="html=1;fillColor=#fff2cc;strokeColor=#d6b656;" vertex="1" parent="3">
          <mxGeometry x="68.63000000000001" y="302" width="247" height="115.5" as="geometry" />
        </mxCell>
        <mxCell id="QoqTUfEi-BefyOeQxd0C-6" value="CargarArchivosFileServer" style="html=1;fillColor=#fff2cc;strokeColor=#d6b656;" vertex="1" parent="3">
          <mxGeometry x="68.62" y="450" width="247" height="70" as="geometry" />
        </mxCell>
        <mxCell id="QoqTUfEi-BefyOeQxd0C-17" value="DescgargarCertificacionPorticoCajaFTP" style="html=1;fillColor=#f8cecc;strokeColor=#b85450;" vertex="1" parent="3">
          <mxGeometry x="68.63" y="542" width="247" height="58" as="geometry" />
        </mxCell>
        <mxCell id="QoqTUfEi-BefyOeQxd0C-18" value="transferirArchivosFTP" style="html=1;" vertex="1" parent="3">
          <mxGeometry x="68.61999999999999" y="612" width="247" height="58" as="geometry" />
        </mxCell>
        <mxCell id="z6HRuHsra1VzPBBbZyOo-57" value="MisFinanzas" style="swimlane;whiteSpace=wrap" parent="1" vertex="1">
          <mxGeometry x="-710" y="-50" width="330" height="1360" as="geometry" />
        </mxCell>
        <mxCell id="z6HRuHsra1VzPBBbZyOo-58" value="OrdenCompra" style="shape=umlFrame;whiteSpace=wrap;html=1;width=105;height=24;" parent="z6HRuHsra1VzPBBbZyOo-57" vertex="1">
          <mxGeometry x="25.5" y="48" width="264.5" height="202" as="geometry" />
        </mxCell>
        <mxCell id="z6HRuHsra1VzPBBbZyOo-59" value="OrdenesCompras.aspx" style="shape=umlFrame;whiteSpace=wrap;html=1;width=130;height=30;" parent="z6HRuHsra1VzPBBbZyOo-57" vertex="1">
          <mxGeometry x="40" y="92" width="210" height="124" as="geometry" />
        </mxCell>
        <mxCell id="z6HRuHsra1VzPBBbZyOo-60" value="DescargarArchivo" style="html=1;fillColor=#fff2cc;strokeColor=#d6b656;" parent="z6HRuHsra1VzPBBbZyOo-57" vertex="1">
          <mxGeometry x="70" y="142" width="150" height="50" as="geometry" />
        </mxCell>
        <mxCell id="z6HRuHsra1VzPBBbZyOo-64" value="PagosCredito" style="shape=umlFrame;whiteSpace=wrap;html=1;width=105;height=24;" parent="z6HRuHsra1VzPBBbZyOo-57" vertex="1">
          <mxGeometry x="25.5" y="299" width="264.5" height="202" as="geometry" />
        </mxCell>
        <mxCell id="z6HRuHsra1VzPBBbZyOo-65" value="EstadoCuentaCredito.aspx" style="shape=umlFrame;whiteSpace=wrap;html=1;width=150;height=33;" parent="z6HRuHsra1VzPBBbZyOo-57" vertex="1">
          <mxGeometry x="40" y="343" width="210" height="124" as="geometry" />
        </mxCell>
        <mxCell id="z6HRuHsra1VzPBBbZyOo-66" value="FtpDownloadFile" style="html=1;fillColor=#fff2cc;strokeColor=#d6b656;" parent="z6HRuHsra1VzPBBbZyOo-57" vertex="1">
          <mxGeometry x="70" y="393" width="150" height="50" as="geometry" />
        </mxCell>
        <mxCell id="z6HRuHsra1VzPBBbZyOo-67" value="Proveedores" style="shape=umlFrame;whiteSpace=wrap;html=1;width=105;height=24;" parent="z6HRuHsra1VzPBBbZyOo-57" vertex="1">
          <mxGeometry x="25.5" y="540" width="264.5" height="202" as="geometry" />
        </mxCell>
        <mxCell id="z6HRuHsra1VzPBBbZyOo-68" value="Certificaciones.aspx" style="shape=umlFrame;whiteSpace=wrap;html=1;width=150;height=33;" parent="z6HRuHsra1VzPBBbZyOo-57" vertex="1">
          <mxGeometry x="40" y="584" width="210" height="124" as="geometry" />
        </mxCell>
        <mxCell id="z6HRuHsra1VzPBBbZyOo-69" value="DescargarArchivo" style="html=1;fillColor=#fff2cc;strokeColor=#d6b656;" parent="z6HRuHsra1VzPBBbZyOo-57" vertex="1">
          <mxGeometry x="70" y="634" width="150" height="50" as="geometry" />
        </mxCell>
        <mxCell id="z6HRuHsra1VzPBBbZyOo-124" value="PagosCredito" style="shape=umlFrame;whiteSpace=wrap;html=1;width=105;height=24;" parent="z6HRuHsra1VzPBBbZyOo-57" vertex="1">
          <mxGeometry x="25.5" y="780" width="264.5" height="540" as="geometry" />
        </mxCell>
        <mxCell id="z6HRuHsra1VzPBBbZyOo-125" value="PagosCredito.aspx" style="shape=umlFrame;whiteSpace=wrap;html=1;width=150;height=33;" parent="z6HRuHsra1VzPBBbZyOo-57" vertex="1">
          <mxGeometry x="40" y="824" width="210" height="124" as="geometry" />
        </mxCell>
        <mxCell id="z6HRuHsra1VzPBBbZyOo-133" style="edgeStyle=orthogonalEdgeStyle;rounded=0;orthogonalLoop=1;jettySize=auto;html=1;" parent="z6HRuHsra1VzPBBbZyOo-57" source="z6HRuHsra1VzPBBbZyOo-126" target="z6HRuHsra1VzPBBbZyOo-131" edge="1">
          <mxGeometry relative="1" as="geometry" />
        </mxCell>
        <mxCell id="z6HRuHsra1VzPBBbZyOo-126" value="BotonClick" style="html=1;" parent="z6HRuHsra1VzPBBbZyOo-57" vertex="1">
          <mxGeometry x="70" y="874" width="150" height="50" as="geometry" />
        </mxCell>
        <mxCell id="z6HRuHsra1VzPBBbZyOo-131" value="frmValorAPagar.aspx" style="shape=umlFrame;whiteSpace=wrap;html=1;width=150;height=33;" parent="z6HRuHsra1VzPBBbZyOo-57" vertex="1">
          <mxGeometry x="40" y="1000" width="210" height="280" as="geometry" />
        </mxCell>
        <mxCell id="z6HRuHsra1VzPBBbZyOo-138" style="edgeStyle=orthogonalEdgeStyle;rounded=0;orthogonalLoop=1;jettySize=auto;html=1;" parent="z6HRuHsra1VzPBBbZyOo-57" source="z6HRuHsra1VzPBBbZyOo-132" target="z6HRuHsra1VzPBBbZyOo-137" edge="1">
          <mxGeometry relative="1" as="geometry" />
        </mxCell>
        <mxCell id="z6HRuHsra1VzPBBbZyOo-139" style="edgeStyle=orthogonalEdgeStyle;rounded=0;orthogonalLoop=1;jettySize=auto;html=1;" parent="z6HRuHsra1VzPBBbZyOo-57" source="z6HRuHsra1VzPBBbZyOo-132" target="z6HRuHsra1VzPBBbZyOo-134" edge="1">
          <mxGeometry relative="1" as="geometry" />
        </mxCell>
        <mxCell id="z6HRuHsra1VzPBBbZyOo-132" value="Page_Load" style="html=1;fillColor=#fff2cc;strokeColor=#d6b656;" parent="z6HRuHsra1VzPBBbZyOo-57" vertex="1">
          <mxGeometry x="70" y="1115" width="150" height="50" as="geometry" />
        </mxCell>
        <mxCell id="z6HRuHsra1VzPBBbZyOo-134" value="transferirArchivo" style="html=1;fillColor=#fff2cc;strokeColor=#d6b656;" parent="z6HRuHsra1VzPBBbZyOo-57" vertex="1">
          <mxGeometry x="70" y="1190" width="150" height="50" as="geometry" />
        </mxCell>
        <mxCell id="z6HRuHsra1VzPBBbZyOo-137" value="EliminarArchivoFTP" style="html=1;fillColor=#fff2cc;strokeColor=#d6b656;" parent="z6HRuHsra1VzPBBbZyOo-57" vertex="1">
          <mxGeometry x="70" y="1040" width="150" height="50" as="geometry" />
        </mxCell>
        <mxCell id="z6HRuHsra1VzPBBbZyOo-90" value="MisDatos" style="swimlane;whiteSpace=wrap" parent="1" vertex="1">
          <mxGeometry x="-200" y="480" width="330" height="1020" as="geometry" />
        </mxCell>
        <mxCell id="z6HRuHsra1VzPBBbZyOo-91" value="Paginas" style="shape=umlFrame;whiteSpace=wrap;html=1;width=105;height=24;" parent="z6HRuHsra1VzPBBbZyOo-90" vertex="1">
          <mxGeometry x="34.129999999999995" y="346" width="264.5" height="382" as="geometry" />
        </mxCell>
        <mxCell id="z6HRuHsra1VzPBBbZyOo-92" value="InDocument.aspx" style="shape=umlFrame;whiteSpace=wrap;html=1;width=130;height=30;" parent="z6HRuHsra1VzPBBbZyOo-90" vertex="1">
          <mxGeometry x="48.629999999999995" y="390" width="210" height="124" as="geometry" />
        </mxCell>
        <mxCell id="z6HRuHsra1VzPBBbZyOo-93" value="transferirArchivo" style="html=1;fillColor=#fff2cc;strokeColor=#d6b656;" parent="z6HRuHsra1VzPBBbZyOo-90" vertex="1">
          <mxGeometry x="78.63000000000001" y="440" width="150" height="50" as="geometry" />
        </mxCell>
        <mxCell id="z6HRuHsra1VzPBBbZyOo-94" value="Subsidios" style="shape=umlFrame;whiteSpace=wrap;html=1;width=105;height=24;" parent="z6HRuHsra1VzPBBbZyOo-90" vertex="1">
          <mxGeometry x="31.38" y="746" width="264.5" height="202" as="geometry" />
        </mxCell>
        <mxCell id="z6HRuHsra1VzPBBbZyOo-95" value="AcreditarSubsidios.aspx" style="shape=umlFrame;whiteSpace=wrap;html=1;width=150;height=33;" parent="z6HRuHsra1VzPBBbZyOo-90" vertex="1">
          <mxGeometry x="45.879999999999995" y="790" width="210" height="124" as="geometry" />
        </mxCell>
        <mxCell id="z6HRuHsra1VzPBBbZyOo-96" value="transferirArchivo" style="html=1;fillColor=#fff2cc;strokeColor=#d6b656;" parent="z6HRuHsra1VzPBBbZyOo-90" vertex="1">
          <mxGeometry x="75.88000000000001" y="840" width="150" height="50" as="geometry" />
        </mxCell>
        <mxCell id="z6HRuHsra1VzPBBbZyOo-97" value="TipRelCom.aspx" style="shape=umlFrame;whiteSpace=wrap;html=1;width=150;height=33;" parent="z6HRuHsra1VzPBBbZyOo-90" vertex="1">
          <mxGeometry x="48.629999999999995" y="560" width="210" height="124" as="geometry" />
        </mxCell>
        <mxCell id="z6HRuHsra1VzPBBbZyOo-98" value="transferirArchivo" style="html=1;fillColor=#fff2cc;strokeColor=#d6b656;" parent="z6HRuHsra1VzPBBbZyOo-90" vertex="1">
          <mxGeometry x="78.63000000000001" y="610" width="150" height="50" as="geometry" />
        </mxCell>
        <mxCell id="z6HRuHsra1VzPBBbZyOo-104" value="ActualizacionDatos" style="shape=umlFrame;whiteSpace=wrap;html=1;width=139;height=20;" parent="z6HRuHsra1VzPBBbZyOo-90" vertex="1">
          <mxGeometry x="31.379999999999995" y="80" width="264.5" height="202" as="geometry" />
        </mxCell>
        <mxCell id="z6HRuHsra1VzPBBbZyOo-105" value="DetalleAprobacionSolicitudesEPS" style="shape=umlFrame;whiteSpace=wrap;html=1;width=204;height=26;" parent="z6HRuHsra1VzPBBbZyOo-90" vertex="1">
          <mxGeometry x="45.879999999999995" y="124" width="210" height="124" as="geometry" />
        </mxCell>
        <mxCell id="z6HRuHsra1VzPBBbZyOo-106" value="transferirArchivo" style="html=1;fillColor=#fff2cc;strokeColor=#d6b656;" parent="z6HRuHsra1VzPBBbZyOo-90" vertex="1">
          <mxGeometry x="75.88" y="174" width="150" height="50" as="geometry" />
        </mxCell>
        <mxCell id="z6HRuHsra1VzPBBbZyOo-107" style="edgeStyle=orthogonalEdgeStyle;rounded=0;orthogonalLoop=1;jettySize=auto;html=1;entryX=-0.004;entryY=0.131;entryDx=0;entryDy=0;entryPerimeter=0;" parent="1" source="z6HRuHsra1VzPBBbZyOo-106" target="QoqTUfEi-BefyOeQxd0C-6" edge="1">
          <mxGeometry relative="1" as="geometry">
            <Array as="points">
              <mxPoint x="170" y="679" />
              <mxPoint x="170" y="587" />
            </Array>
            <mxPoint x="509" y="599" as="targetPoint" />
          </mxGeometry>
        </mxCell>
        <mxCell id="z6HRuHsra1VzPBBbZyOo-108" style="edgeStyle=orthogonalEdgeStyle;rounded=0;orthogonalLoop=1;jettySize=auto;html=1;fillColor=#fa6800;strokeColor=#C73500;" parent="1" source="z6HRuHsra1VzPBBbZyOo-93" edge="1">
          <mxGeometry relative="1" as="geometry">
            <Array as="points">
              <mxPoint x="260" y="945" />
              <mxPoint x="260" y="613" />
              <mxPoint x="509" y="613" />
            </Array>
            <mxPoint x="509" y="613" as="targetPoint" />
          </mxGeometry>
        </mxCell>
        <mxCell id="z6HRuHsra1VzPBBbZyOo-109" style="edgeStyle=orthogonalEdgeStyle;rounded=0;orthogonalLoop=1;jettySize=auto;html=1;exitX=1;exitY=0.5;exitDx=0;exitDy=0;fillColor=#647687;strokeColor=#314354;" parent="1" source="z6HRuHsra1VzPBBbZyOo-98" edge="1">
          <mxGeometry relative="1" as="geometry">
            <mxPoint x="509" y="630" as="targetPoint" />
            <Array as="points">
              <mxPoint x="310" y="1115" />
              <mxPoint x="310" y="630" />
              <mxPoint x="509" y="630" />
            </Array>
          </mxGeometry>
        </mxCell>
        <mxCell id="z6HRuHsra1VzPBBbZyOo-110" style="edgeStyle=orthogonalEdgeStyle;rounded=0;orthogonalLoop=1;jettySize=auto;html=1;entryX=0;entryY=1;entryDx=0;entryDy=0;fillColor=#a0522d;strokeColor=#6D1F00;" parent="1" source="z6HRuHsra1VzPBBbZyOo-96" target="QoqTUfEi-BefyOeQxd0C-6" edge="1">
          <mxGeometry relative="1" as="geometry">
            <Array as="points">
              <mxPoint x="370" y="1345" />
              <mxPoint x="370" y="648" />
            </Array>
          </mxGeometry>
        </mxCell>
        <mxCell id="z6HRuHsra1VzPBBbZyOo-119" style="edgeStyle=orthogonalEdgeStyle;rounded=0;orthogonalLoop=1;jettySize=auto;html=1;entryX=1;entryY=0.5;entryDx=0;entryDy=0;exitX=0;exitY=0.5;exitDx=0;exitDy=0;" parent="1" source="z6HRuHsra1VzPBBbZyOo-117" target="QoqTUfEi-BefyOeQxd0C-6" edge="1">
          <mxGeometry relative="1" as="geometry">
            <mxPoint x="757.8599999999997" y="554" as="targetPoint" />
          </mxGeometry>
        </mxCell>
        <mxCell id="z6HRuHsra1VzPBBbZyOo-114" value="ServicioSubsidio" style="swimlane;whiteSpace=wrap" parent="1" vertex="1">
          <mxGeometry x="990" y="419.5" width="320" height="269" as="geometry" />
        </mxCell>
        <mxCell id="z6HRuHsra1VzPBBbZyOo-115" value="ServicioSubsidio.cs" style="shape=umlFrame;whiteSpace=wrap;html=1;width=125;height=31;" parent="z6HRuHsra1VzPBBbZyOo-114" vertex="1">
          <mxGeometry x="25.5" y="48" width="244.5" height="162" as="geometry" />
        </mxCell>
        <mxCell id="z6HRuHsra1VzPBBbZyOo-117" value="GeneraDiv" style="html=1;fillColor=#fff2cc;strokeColor=#d6b656;" parent="z6HRuHsra1VzPBBbZyOo-114" vertex="1">
          <mxGeometry x="77.75" y="109.5" width="140" height="50" as="geometry" />
        </mxCell>
        <mxCell id="z6HRuHsra1VzPBBbZyOo-142" value="&lt;h2&gt;Key&lt;/h2&gt;" style="rounded=0;whiteSpace=wrap;html=1;align=left;verticalAlign=top;" parent="1" vertex="1">
          <mxGeometry x="-680" y="1460" width="255.5" height="130" as="geometry" />
        </mxCell>
        <mxCell id="z6HRuHsra1VzPBBbZyOo-145" value="" style="ellipse;whiteSpace=wrap;html=1;aspect=fixed;align=left;fillColor=#fff2cc;strokeColor=#d6b656;" parent="1" vertex="1">
          <mxGeometry x="-670" y="1509" width="20" height="20" as="geometry" />
        </mxCell>
        <mxCell id="z6HRuHsra1VzPBBbZyOo-146" value="Modificar" style="text;html=1;strokeColor=none;fillColor=none;align=center;verticalAlign=middle;whiteSpace=wrap;rounded=0;" parent="1" vertex="1">
          <mxGeometry x="-630" y="1510" width="40" height="20" as="geometry" />
        </mxCell>
        <mxCell id="QoqTUfEi-BefyOeQxd0C-23" style="edgeStyle=orthogonalEdgeStyle;rounded=0;orthogonalLoop=1;jettySize=auto;html=1;fillColor=#dae8fc;strokeColor=#6c8ebf;" edge="1" parent="1" source="z6HRuHsra1VzPBBbZyOo-52">
          <mxGeometry relative="1" as="geometry">
            <mxPoint x="509" y="320" as="targetPoint" />
            <Array as="points">
              <mxPoint x="224" y="57" />
              <mxPoint x="224" y="320" />
              <mxPoint x="509" y="320" />
            </Array>
          </mxGeometry>
        </mxCell>
        <mxCell id="QoqTUfEi-BefyOeQxd0C-24" style="edgeStyle=orthogonalEdgeStyle;rounded=0;orthogonalLoop=1;jettySize=auto;html=1;fillColor=#dae8fc;strokeColor=#6c8ebf;" edge="1" parent="1" source="z6HRuHsra1VzPBBbZyOo-52" target="QoqTUfEi-BefyOeQxd0C-5">
          <mxGeometry relative="1" as="geometry">
            <Array as="points">
              <mxPoint x="200" y="70" />
              <mxPoint x="200" y="440" />
            </Array>
          </mxGeometry>
        </mxCell>
        <mxCell id="QoqTUfEi-BefyOeQxd0C-25" style="edgeStyle=orthogonalEdgeStyle;rounded=0;orthogonalLoop=1;jettySize=auto;html=1;fillColor=#d80073;strokeColor=#A50040;" edge="1" parent="1" source="z6HRuHsra1VzPBBbZyOo-60">
          <mxGeometry relative="1" as="geometry">
            <mxPoint x="509" y="330" as="targetPoint" />
            <Array as="points">
              <mxPoint x="-330" y="117" />
              <mxPoint x="-330" y="260" />
              <mxPoint x="80" y="260" />
              <mxPoint x="80" y="330" />
              <mxPoint x="509" y="330" />
            </Array>
          </mxGeometry>
        </mxCell>
        <mxCell id="QoqTUfEi-BefyOeQxd0C-27" style="edgeStyle=orthogonalEdgeStyle;rounded=0;orthogonalLoop=1;jettySize=auto;html=1;" edge="1" parent="1" source="z6HRuHsra1VzPBBbZyOo-66" target="z6HRuHsra1VzPBBbZyOo-43">
          <mxGeometry relative="1" as="geometry">
            <mxPoint x="440" y="368" as="targetPoint" />
            <Array as="points">
              <mxPoint x="-50" y="366" />
              <mxPoint x="-50" y="366" />
            </Array>
          </mxGeometry>
        </mxCell>
        <mxCell id="QoqTUfEi-BefyOeQxd0C-29" style="edgeStyle=orthogonalEdgeStyle;rounded=0;orthogonalLoop=1;jettySize=auto;html=1;fillColor=#008a00;strokeColor=#005700;exitX=1;exitY=0.25;exitDx=0;exitDy=0;" edge="1" parent="1" source="z6HRuHsra1VzPBBbZyOo-69">
          <mxGeometry relative="1" as="geometry">
            <mxPoint x="510" y="350" as="targetPoint" />
            <Array as="points">
              <mxPoint x="-340" y="596" />
              <mxPoint x="-340" y="350" />
            </Array>
          </mxGeometry>
        </mxCell>
        <mxCell id="QoqTUfEi-BefyOeQxd0C-34" style="edgeStyle=orthogonalEdgeStyle;rounded=0;orthogonalLoop=1;jettySize=auto;html=1;fillColor=#d80073;strokeColor=#A50040;exitX=1;exitY=0.75;exitDx=0;exitDy=0;entryX=0.003;entryY=0.205;entryDx=0;entryDy=0;entryPerimeter=0;" edge="1" parent="1" source="z6HRuHsra1VzPBBbZyOo-60" target="QoqTUfEi-BefyOeQxd0C-5">
          <mxGeometry relative="1" as="geometry">
            <mxPoint x="-480.0000000000002" y="127" as="sourcePoint" />
            <mxPoint x="509" y="447" as="targetPoint" />
            <Array as="points">
              <mxPoint x="-490" y="127" />
              <mxPoint x="-350" y="127" />
              <mxPoint x="-350" y="270" />
              <mxPoint x="60" y="270" />
              <mxPoint x="60" y="454" />
            </Array>
          </mxGeometry>
        </mxCell>
        <mxCell id="QoqTUfEi-BefyOeQxd0C-35" style="edgeStyle=orthogonalEdgeStyle;rounded=0;orthogonalLoop=1;jettySize=auto;html=1;exitX=1;exitY=0.75;exitDx=0;exitDy=0;entryX=0;entryY=0.323;entryDx=0;entryDy=0;entryPerimeter=0;" edge="1" parent="1" source="z6HRuHsra1VzPBBbZyOo-66" target="QoqTUfEi-BefyOeQxd0C-5">
          <mxGeometry relative="1" as="geometry">
            <mxPoint x="509" y="474" as="targetPoint" />
            <Array as="points">
              <mxPoint x="9" y="381" />
              <mxPoint x="9" y="467" />
              <mxPoint x="509" y="467" />
            </Array>
          </mxGeometry>
        </mxCell>
        <mxCell id="QoqTUfEi-BefyOeQxd0C-36" style="edgeStyle=orthogonalEdgeStyle;rounded=0;orthogonalLoop=1;jettySize=auto;html=1;fillColor=#008a00;strokeColor=#005700;exitX=1;exitY=0.75;exitDx=0;exitDy=0;entryX=0;entryY=0.5;entryDx=0;entryDy=0;" edge="1" parent="1" source="z6HRuHsra1VzPBBbZyOo-69" target="QoqTUfEi-BefyOeQxd0C-5">
          <mxGeometry relative="1" as="geometry">
            <mxPoint x="-480.0000000000002" y="606.5" as="sourcePoint" />
            <mxPoint x="520" y="360" as="targetPoint" />
            <Array as="points">
              <mxPoint x="-490" y="606" />
              <mxPoint x="-320" y="606" />
              <mxPoint x="-320" y="420" />
              <mxPoint x="170" y="420" />
              <mxPoint x="170" y="488" />
            </Array>
          </mxGeometry>
        </mxCell>
        <mxCell id="QoqTUfEi-BefyOeQxd0C-38" style="edgeStyle=orthogonalEdgeStyle;rounded=0;orthogonalLoop=1;jettySize=auto;html=1;exitX=1;exitY=0.25;exitDx=0;exitDy=0;fillColor=#e51400;strokeColor=#B20000;entryX=0;entryY=0.75;entryDx=0;entryDy=0;" edge="1" parent="1" source="z6HRuHsra1VzPBBbZyOo-137" target="QoqTUfEi-BefyOeQxd0C-5">
          <mxGeometry relative="1" as="geometry">
            <mxPoint x="150" y="530" as="targetPoint" />
            <Array as="points">
              <mxPoint x="-300" y="1003" />
              <mxPoint x="-300" y="780" />
              <mxPoint x="160" y="780" />
              <mxPoint x="160" y="517" />
            </Array>
          </mxGeometry>
        </mxCell>
        <mxCell id="QoqTUfEi-BefyOeQxd0C-39" style="edgeStyle=orthogonalEdgeStyle;rounded=0;orthogonalLoop=1;jettySize=auto;html=1;fillColor=#a0522d;strokeColor=#6D1F00;entryX=0;entryY=0.25;entryDx=0;entryDy=0;" edge="1" parent="1" source="z6HRuHsra1VzPBBbZyOo-134" target="QoqTUfEi-BefyOeQxd0C-6">
          <mxGeometry relative="1" as="geometry">
            <mxPoint x="509" y="613" as="targetPoint" />
            <Array as="points">
              <mxPoint x="-270" y="1165" />
              <mxPoint x="-270" y="810" />
              <mxPoint x="230" y="810" />
              <mxPoint x="230" y="596" />
              <mxPoint x="450" y="596" />
            </Array>
          </mxGeometry>
        </mxCell>
        <mxCell id="QoqTUfEi-BefyOeQxd0C-40" value="" style="ellipse;whiteSpace=wrap;html=1;aspect=fixed;align=left;fillColor=#fad9d5;strokeColor=#ae4132;" vertex="1" parent="1">
          <mxGeometry x="-670" y="1550" width="20" height="20" as="geometry" />
        </mxCell>
        <mxCell id="QoqTUfEi-BefyOeQxd0C-41" value="Eliminar" style="text;html=1;strokeColor=none;fillColor=none;align=center;verticalAlign=middle;whiteSpace=wrap;rounded=0;" vertex="1" parent="1">
          <mxGeometry x="-630" y="1550" width="40" height="20" as="geometry" />
        </mxCell>
      </root>
    </mxGraphModel>
  </diagram>
</mxfile>
